<svg xmlns="http://www.w3.org/2000/svg" xmlns:xlink="http://www.w3.org/1999/xlink" viewBox="0 0 590.11 232.75"><defs><style>.cls-1{isolation:isolate;}.cls-2{fill:#2cc5dd;}.cls-3{fill:url(#未命名漸層_437);}.cls-4{fill:url(#未命名漸層_350);}.cls-5,.cls-6{mix-blend-mode:multiply;}.cls-5{fill:url(#未命名漸層_434);}.cls-6{fill:url(#未命名漸層_263);}</style><linearGradient id="未命名漸層_437" x1="171.19" y1="-3.1" x2="117.1" y2="256.42" gradientUnits="userSpaceOnUse"><stop offset="0" stop-color="#25f2e4"/><stop offset="1" stop-color="#4293f4"/></linearGradient><linearGradient id="未命名漸層_350" x1="40.2" y1="35.01" x2="58.77" y2="261.2" gradientUnits="userSpaceOnUse"><stop offset="0" stop-color="#0fa1f3"/><stop offset="0.24" stop-color="#14b0f1"/><stop offset="0.7" stop-color="#1fd8eb"/><stop offset="1" stop-color="#28f5e7"/></linearGradient><linearGradient id="未命名漸層_434" x1="3.72" y1="105.53" x2="62" y2="121.56" gradientUnits="userSpaceOnUse"><stop offset="0.01" stop-color="#fff"/><stop offset="0.45" stop-color="#fdfdfd"/><stop offset="0.61" stop-color="#f6f6f6"/><stop offset="0.73" stop-color="#ebebeb"/><stop offset="0.82" stop-color="#dadada"/><stop offset="0.9" stop-color="#c4c4c4"/><stop offset="0.96" stop-color="#a9a9a9"/><stop offset="1" stop-color="#989898"/></linearGradient><linearGradient id="未命名漸層_263" x1="196.37" y1="74.82" x2="132.99" y2="92.85" gradientUnits="userSpaceOnUse"><stop offset="0.01" stop-color="#fff"/><stop offset="0.48" stop-color="#fdfdfd"/><stop offset="0.64" stop-color="#f6f6f6"/><stop offset="0.76" stop-color="#ebebeb"/><stop offset="0.86" stop-color="#dadada"/><stop offset="0.94" stop-color="#c4c4c4"/><stop offset="1" stop-color="#aeaeae"/></linearGradient></defs><g class="cls-1"><g id="圖層_2" data-name="圖層 2"><g id="圖層_1-2" data-name="圖層 1"><path class="cls-2" d="M275.69,188.86H257.76l-30.42-87.42h17.21l22.17,70.64h.37l22.17-70.64H306.1Z"/><path class="cls-2" d="M326.55,113.83a8.22,8.22,0,0,1-6,2.39,8.12,8.12,0,0,1-5.94-2.39,7.83,7.83,0,0,1-2.42-5.78,7.92,7.92,0,0,1,2.42-5.85,8.16,8.16,0,0,1,5.94-2.39,8.26,8.26,0,0,1,6,2.39,7.88,7.88,0,0,1,2.45,5.85A7.79,7.79,0,0,1,326.55,113.83Zm-13.48,75V124.65h15.08v64.21Z"/><path class="cls-2" d="M339.66,143.06a17.14,17.14,0,0,1,7.15-14.29q7.15-5.46,18.84-5.46,11.27,0,18.33,5.55a18.36,18.36,0,0,1,7.36,14.44H377.28a8.73,8.73,0,0,0-3.51-6.54,13.74,13.74,0,0,0-8.42-2.36,13.57,13.57,0,0,0-8,2.15,6.63,6.63,0,0,0-3,5.66q0,5.34,9.21,7.58L375,152.33q9.63,2.25,13.75,6.3t4.12,11.21a17.38,17.38,0,0,1-7.63,14.69q-7.64,5.61-19.81,5.6-12,0-19.3-5.48A19.67,19.67,0,0,1,338,170h14.84a9.66,9.66,0,0,0,4,6.79q3.36,2.35,9.05,2.36,5.52,0,8.7-2.09a6.47,6.47,0,0,0,3.18-5.67,5.55,5.55,0,0,0-2-4.45,17.3,17.3,0,0,0-6.63-2.88l-11.7-2.72Q339.67,157.11,339.66,143.06Z"/><path class="cls-2" d="M402.49,188.86V124.65H417v11.14h.3a18.44,18.44,0,0,1,7-9,19.42,19.42,0,0,1,11.32-3.34A19.13,19.13,0,0,1,447,126.8a17.07,17.07,0,0,1,6.46,9.54h.36a19.26,19.26,0,0,1,7.66-9.42,22.17,22.17,0,0,1,12.33-3.49q9.51,0,15.24,5.88t5.72,15.51v44H479.73V148.51q0-5.92-3-9.14t-8.51-3.21a11.55,11.55,0,0,0-8.85,3.63,13.21,13.21,0,0,0-3.39,9.39v39.68H441.32V147.73a11.53,11.53,0,0,0-3.06-8.45,11.14,11.14,0,0,0-8.33-3.12,11.54,11.54,0,0,0-8.91,3.78,13.73,13.73,0,0,0-3.45,9.6v39.32Z"/><path class="cls-2" d="M520.71,113.83a8.19,8.19,0,0,1-6,2.39,8.08,8.08,0,0,1-5.93-2.39,7.8,7.8,0,0,1-2.43-5.78,7.9,7.9,0,0,1,2.43-5.85,8.12,8.12,0,0,1,5.93-2.39,8.23,8.23,0,0,1,6,2.39,7.84,7.84,0,0,1,2.45,5.85A7.75,7.75,0,0,1,520.71,113.83Zm-13.48,75V124.65h15.09v64.21Z"/><path class="cls-2" d="M560.06,165.84h-.3l-13.33,23H530.37l20.72-32.05-20.53-32.16h17l13,22.53h.31l12.78-22.53h16.54l-20.66,31.74,20.41,32.47H573.39Z"/></g><g id="圖層_4" data-name="圖層 4"><path class="cls-3" d="M148.85,0a1.73,1.73,0,0,0-1.67,1.29L106.44,157.67,86.87,232.75H144.8a.34.34,0,0,0,.33-.25L205.71,0Z"/><path class="cls-4" d="M56.71,59.83H0L60.36,231.94a1.2,1.2,0,0,0,1.14.81H72.94L92.5,157.67,58.68,61.22A2.09,2.09,0,0,0,56.71,59.83Z"/><polygon class="cls-5" points="58.19 59.83 13.1 59.83 0 59.83 7.51 81.25 40.9 176.44 65.7 81.25 58.19 59.83"/><polygon class="cls-6" points="205.71 0 147.52 0 127.05 78.57 160.43 173.76 205.71 0"/></g></g></g></svg>