<svg xmlns="http://www.w3.org/2000/svg" xmlns:xlink="http://www.w3.org/1999/xlink" viewBox="0 0 749.71 197.68"><defs><style>.cls-1{isolation:isolate;}.cls-2{fill:#2cc5dd;}.cls-3{fill:url(#未命名漸層_437);}.cls-4{fill:url(#未命名漸層_350);}.cls-5,.cls-6{mix-blend-mode:multiply;}.cls-5{fill:url(#未命名漸層_434);}.cls-6{fill:url(#未命名漸層_263);}</style><linearGradient id="未命名漸層_437" x1="145.39" y1="-2.63" x2="99.45" y2="217.78" gradientUnits="userSpaceOnUse"><stop offset="0" stop-color="#25f2e4"/><stop offset="1" stop-color="#4293f4"/></linearGradient><linearGradient id="未命名漸層_350" x1="34.14" y1="29.73" x2="49.92" y2="221.84" gradientUnits="userSpaceOnUse"><stop offset="0" stop-color="#0fa1f3"/><stop offset="0.24" stop-color="#14b0f1"/><stop offset="0.7" stop-color="#1fd8eb"/><stop offset="1" stop-color="#28f5e7"/></linearGradient><linearGradient id="未命名漸層_434" x1="3.16" y1="89.63" x2="52.66" y2="103.24" gradientUnits="userSpaceOnUse"><stop offset="0.01" stop-color="#fff"/><stop offset="0.45" stop-color="#fdfdfd"/><stop offset="0.61" stop-color="#f6f6f6"/><stop offset="0.73" stop-color="#ebebeb"/><stop offset="0.82" stop-color="#dadada"/><stop offset="0.9" stop-color="#c4c4c4"/><stop offset="0.96" stop-color="#a9a9a9"/><stop offset="1" stop-color="#989898"/></linearGradient><linearGradient id="未命名漸層_263" x1="166.78" y1="63.55" x2="112.95" y2="78.86" gradientUnits="userSpaceOnUse"><stop offset="0.01" stop-color="#fff"/><stop offset="0.48" stop-color="#fdfdfd"/><stop offset="0.64" stop-color="#f6f6f6"/><stop offset="0.76" stop-color="#ebebeb"/><stop offset="0.86" stop-color="#dadada"/><stop offset="0.94" stop-color="#c4c4c4"/><stop offset="1" stop-color="#aeaeae"/></linearGradient></defs><g class="cls-1"><g id="圖層_2" data-name="圖層 2"><g id="圖層_1-2" data-name="圖層 1"><path class="cls-2" d="M329.35,71.7,291,184.45H264.92L226.71,71.7h24.16L272,138.81c.32,1.16.89,3.29,1.74,6.4s1.68,6.37,2.52,9.79,1.42,6.29,1.74,8.6q.48-3.47,1.66-8.6t2.37-9.79q1.19-4.67,1.81-6.4L305.19,71.7Z"/><path class="cls-2" d="M353.51,64.44a16.23,16.23,0,0,1,9,2.44q3.8,2.46,3.79,9.08t-3.79,9a17.42,17.42,0,0,1-18.08,0q-3.71-2.52-3.71-9t3.71-9.08A16.13,16.13,0,0,1,353.51,64.44ZM365.2,98.23v86.22H341.67V98.23Z"/><path class="cls-2" d="M450,158.87Q450,172,440.76,179t-27.56,7a87.32,87.32,0,0,1-15.48-1.19A63.63,63.63,0,0,1,384.78,181V161.55a88.49,88.49,0,0,0,15,5.21A58.31,58.31,0,0,0,414,168.81q6.79,0,9.79-2.05a6.24,6.24,0,0,0,3-5.37,6.82,6.82,0,0,0-1.18-3.94c-.79-1.16-2.51-2.48-5.14-3.95a125.46,125.46,0,0,0-12.31-5.69,82.31,82.31,0,0,1-13.35-6.87,22.31,22.31,0,0,1-7.66-8.21,25.89,25.89,0,0,1-2.52-12.08q0-12,9.32-18t24.79-6A72,72,0,0,1,434,98.23a70.7,70.7,0,0,1,15,5.21l-7.11,16.9q-6.31-2.69-12-4.51A38,38,0,0,0,418.41,114Q408,114,408,119.7a5.8,5.8,0,0,0,1.34,3.72,16,16,0,0,0,5.21,3.55q3.87,1.89,11.45,5.05a90.47,90.47,0,0,1,12.79,6.24,23.67,23.67,0,0,1,8.29,8.13C449,149.66,450,153.81,450,158.87Z"/><path class="cls-2" d="M569.53,96.65q14.69,0,22.19,7.5t7.5,24.08v56.22H575.69V134.07q0-18.63-13-18.63-9.32,0-13.26,6.63t-4,19.11v43.27H522V134.07q0-18.63-12.95-18.63-9.8,0-13.5,7.34t-3.71,21.08v40.59H468.31V98.23h18l3.16,11h1.27a23.09,23.09,0,0,1,10.81-9.63,35.33,35.33,0,0,1,14.29-3q9.48,0,16,3.08a22.41,22.41,0,0,1,10.19,9.55h2.05a23,23,0,0,1,11-9.63A36.48,36.48,0,0,1,569.53,96.65Z"/><path class="cls-2" d="M635.22,64.44a16.2,16.2,0,0,1,9,2.44Q648,69.34,648,76t-3.79,9a17.42,17.42,0,0,1-18.08,0q-3.71-2.52-3.71-9t3.71-9.08A16.13,16.13,0,0,1,635.22,64.44Zm11.69,33.79v86.22H623.38V98.23Z"/><path class="cls-2" d="M689.23,140.39,661.44,98.23h26.68l16.74,27.47,16.9-27.47h26.68l-28.1,42.16,29.37,44.06H723l-18.16-29.53L686.7,184.45H660Z"/></g><g id="圖層_4" data-name="圖層 4"><path class="cls-3" d="M126.42,0A1.47,1.47,0,0,0,125,1.09L90.4,133.91,73.78,197.68H123a.3.3,0,0,0,.28-.22L174.71,0Z"/><path class="cls-4" d="M48.17,50.81H0L51.27,197a1,1,0,0,0,1,.69H62l16.61-63.77L49.83,52A1.76,1.76,0,0,0,48.17,50.81Z"/><polygon class="cls-5" points="49.42 50.81 11.12 50.81 0 50.81 6.38 69.01 34.73 149.85 55.8 69.01 49.42 50.81"/><polygon class="cls-6" points="174.71 0 125.29 0 107.9 66.73 136.25 147.57 174.71 0"/></g></g></g></svg>