<svg xmlns="http://www.w3.org/2000/svg" xmlns:xlink="http://www.w3.org/1999/xlink" viewBox="0 0 250.12 283"><defs><style>.cls-1{isolation:isolate;}.cls-2{fill:url(#未命名漸層_437);}.cls-3{fill:url(#未命名漸層_350);}.cls-4,.cls-5{mix-blend-mode:multiply;}.cls-4{fill:url(#未命名漸層_434);}.cls-5{fill:url(#未命名漸層_263);}</style><linearGradient id="未命名漸層_437" x1="208.15" y1="-3.77" x2="142.38" y2="311.78" gradientUnits="userSpaceOnUse"><stop offset="0" stop-color="#25f2e4"/><stop offset="1" stop-color="#4293f4"/></linearGradient><linearGradient id="未命名漸層_350" x1="48.87" y1="42.56" x2="71.46" y2="317.59" gradientUnits="userSpaceOnUse"><stop offset="0" stop-color="#0fa1f3"/><stop offset="0.24" stop-color="#14b0f1"/><stop offset="0.7" stop-color="#1fd8eb"/><stop offset="1" stop-color="#28f5e7"/></linearGradient><linearGradient id="未命名漸層_434" x1="4.52" y1="128.32" x2="75.38" y2="147.8" gradientUnits="userSpaceOnUse"><stop offset="0.01" stop-color="#fff"/><stop offset="0.45" stop-color="#fdfdfd"/><stop offset="0.61" stop-color="#f6f6f6"/><stop offset="0.73" stop-color="#ebebeb"/><stop offset="0.82" stop-color="#dadada"/><stop offset="0.9" stop-color="#c4c4c4"/><stop offset="0.96" stop-color="#a9a9a9"/><stop offset="1" stop-color="#989898"/></linearGradient><linearGradient id="未命名漸層_263" x1="238.76" y1="90.97" x2="161.7" y2="112.9" gradientUnits="userSpaceOnUse"><stop offset="0.01" stop-color="#fff"/><stop offset="0.48" stop-color="#fdfdfd"/><stop offset="0.64" stop-color="#f6f6f6"/><stop offset="0.76" stop-color="#ebebeb"/><stop offset="0.86" stop-color="#dadada"/><stop offset="0.94" stop-color="#c4c4c4"/><stop offset="1" stop-color="#aeaeae"/></linearGradient></defs><g class="cls-1"><g id="圖層_2" data-name="圖層 2"><g id="圖層_4" data-name="圖層 4"><path class="cls-2" d="M181,0a2.09,2.09,0,0,0-2,1.56L129.41,191.71,105.63,283h70.43a.42.42,0,0,0,.4-.3L250.12,0Z"/><path class="cls-3" d="M69,72.74H0L73.39,282a1.48,1.48,0,0,0,1.39,1H88.69l23.78-91.29L71.34,74.44A2.52,2.52,0,0,0,69,72.74Z"/><polygon class="cls-4" points="70.75 72.74 15.92 72.74 0 72.74 9.13 98.79 49.73 214.53 79.89 98.79 70.75 72.74"/><polygon class="cls-5" points="250.12 0 179.37 0 154.47 95.53 195.07 211.27 250.12 0"/></g></g></g></svg>