<svg xmlns="http://www.w3.org/2000/svg" xmlns:xlink="http://www.w3.org/1999/xlink" viewBox="0 0 673.63 232.75"><defs><style>.cls-1{isolation:isolate;}.cls-2{fill:#2cc5dd;}.cls-3{fill:url(#未命名漸層_437);}.cls-4{fill:url(#未命名漸層_350);}.cls-5,.cls-6{mix-blend-mode:multiply;}.cls-5{fill:url(#未命名漸層_434);}.cls-6{fill:url(#未命名漸層_263);}</style><linearGradient id="未命名漸層_437" x1="171.19" y1="-3.1" x2="117.1" y2="256.42" gradientUnits="userSpaceOnUse"><stop offset="0" stop-color="#25f2e4"/><stop offset="1" stop-color="#4293f4"/></linearGradient><linearGradient id="未命名漸層_350" x1="40.2" y1="35.01" x2="58.77" y2="261.2" gradientUnits="userSpaceOnUse"><stop offset="0" stop-color="#0fa1f3"/><stop offset="0.24" stop-color="#14b0f1"/><stop offset="0.7" stop-color="#1fd8eb"/><stop offset="1" stop-color="#28f5e7"/></linearGradient><linearGradient id="未命名漸層_434" x1="3.72" y1="105.53" x2="62" y2="121.56" gradientUnits="userSpaceOnUse"><stop offset="0.01" stop-color="#fff"/><stop offset="0.45" stop-color="#fdfdfd"/><stop offset="0.61" stop-color="#f6f6f6"/><stop offset="0.73" stop-color="#ebebeb"/><stop offset="0.82" stop-color="#dadada"/><stop offset="0.9" stop-color="#c4c4c4"/><stop offset="0.96" stop-color="#a9a9a9"/><stop offset="1" stop-color="#989898"/></linearGradient><linearGradient id="未命名漸層_263" x1="196.37" y1="74.82" x2="132.99" y2="92.85" gradientUnits="userSpaceOnUse"><stop offset="0.01" stop-color="#fff"/><stop offset="0.48" stop-color="#fdfdfd"/><stop offset="0.64" stop-color="#f6f6f6"/><stop offset="0.76" stop-color="#ebebeb"/><stop offset="0.86" stop-color="#dadada"/><stop offset="0.94" stop-color="#c4c4c4"/><stop offset="1" stop-color="#aeaeae"/></linearGradient></defs><g class="cls-1"><g id="圖層_2" data-name="圖層 2"><g id="圖層_1-2" data-name="圖層 1"><path class="cls-2" d="M343.36,108.27l-30.15,88.59H292.73l-30-88.59h19L298.32,161q.38,1.37,1.36,5c.66,2.44,1.32,5,2,7.69a68.71,68.71,0,0,1,1.36,6.76c.25-1.81.68-4.07,1.31-6.76s1.24-5.25,1.86-7.69,1.09-4.11,1.42-5l16.75-52.74Z"/><path class="cls-2" d="M362.34,102.57a12.77,12.77,0,0,1,7.07,1.92c2,1.28,3,3.66,3,7.14s-1,5.75-3,7.07a13.74,13.74,0,0,1-14.21,0q-2.91-2-2.91-7.07t2.91-7.14A12.71,12.71,0,0,1,362.34,102.57Zm9.18,26.55v67.74H353V129.12Z"/><path class="cls-2" d="M438.14,176.76q0,10.31-7.25,15.82t-21.65,5.52a68.6,68.6,0,0,1-12.16-.93,49.65,49.65,0,0,1-10.18-3V178.87a70.45,70.45,0,0,0,11.79,4.1,46.17,46.17,0,0,0,11.17,1.61c3.55,0,6.12-.54,7.69-1.61a4.93,4.93,0,0,0,2.36-4.22,5.3,5.3,0,0,0-.94-3.1,12.23,12.23,0,0,0-4-3.11,101.63,101.63,0,0,0-9.68-4.46,65.58,65.58,0,0,1-10.48-5.4,17.57,17.57,0,0,1-6-6.45,20.34,20.34,0,0,1-2-9.49q0-9.44,7.32-14.15t19.48-4.71a53.26,53.26,0,0,1,23.82,5.33l-5.58,13.28q-5-2.12-9.43-3.54a29.66,29.66,0,0,0-9.06-1.42q-8.19,0-8.19,4.46a4.49,4.49,0,0,0,1.06,2.92,12.3,12.3,0,0,0,4.09,2.79q3,1.49,9,4a71.54,71.54,0,0,1,10.05,4.9,18.58,18.58,0,0,1,6.52,6.39A18.9,18.9,0,0,1,438.14,176.76Z"/><path class="cls-2" d="M532.07,127.88q11.53,0,17.43,5.89t5.89,18.92v44.17H536.9V157.28q0-14.64-10.17-14.64-7.32,0-10.42,5.21t-3.1,15v34H494.72V157.28q0-14.64-10.17-14.64-7.69,0-10.61,5.77T471,165v31.88H452.54V129.12h14.14l2.48,8.68h1a18.16,18.16,0,0,1,8.5-7.56,27.8,27.8,0,0,1,11.23-2.36,29.36,29.36,0,0,1,12.59,2.42,17.55,17.55,0,0,1,8,7.5h1.61a18.06,18.06,0,0,1,8.62-7.56A28.7,28.7,0,0,1,532.07,127.88Z"/><path class="cls-2" d="M583.68,102.57a12.77,12.77,0,0,1,7.07,1.92q3,1.92,3,7.14t-3,7.07a13.74,13.74,0,0,1-14.21,0q-2.91-2-2.91-7.07t2.91-7.14A12.71,12.71,0,0,1,583.68,102.57Zm9.18,26.55v67.74H574.37V129.12Z"/><path class="cls-2" d="M626.11,162.25l-21.84-33.13h21l13.15,21.59,13.28-21.59h21l-22.09,33.13,23.08,34.61h-21l-14.27-23.2-14.27,23.2h-21Z"/></g><g id="圖層_4" data-name="圖層 4"><path class="cls-3" d="M148.85,0a1.73,1.73,0,0,0-1.67,1.29L106.44,157.67,86.87,232.75H144.8a.34.34,0,0,0,.33-.25L205.71,0Z"/><path class="cls-4" d="M56.71,59.83H0L60.36,231.94a1.2,1.2,0,0,0,1.14.81H72.94L92.5,157.67,58.68,61.22A2.09,2.09,0,0,0,56.71,59.83Z"/><polygon class="cls-5" points="58.19 59.83 13.1 59.83 0 59.83 7.51 81.25 40.9 176.44 65.7 81.25 58.19 59.83"/><polygon class="cls-6" points="205.71 0 147.52 0 127.05 78.57 160.43 173.76 205.71 0"/></g></g></g></svg>